<svg xmlns="http://www.w3.org/2000/svg" xmlns:xlink="http://www.w3.org/1999/xlink" version="1.1" id="Layer_1" x="0px" y="0px" width="1280px" height="300px" viewBox="0 0 1280 300" enable-background="new 0 0 1280 300" xml:space="preserve">
<g>
	<path fill="#F23719" d="M0,284c0,8.837,7.164,16,16,16h1248c8.837,0,16-7.163,16-16V16c0-8.836-7.163-16-16-16H16   C7.164,0,0,7.164,0,16V284z"/>
</g>
<path fill="#FFFFFF" d="M670.195,241.216l-35.495-35.494l24.106-24.105l8.498,8.499l-14.453,14.452l5.898,5.899l11.781-11.779  l7.898,7.897l-11.781,11.78l13.199,13.198L670.195,241.216z"/>
<path fill="#FFFFFF" d="M695.152,168.466c-1.59,0.39-3.146,0.88-4.668,1.47c-1.291,0.49-2.664,1.114-4.119,1.869  c-1.457,0.756-2.713,1.662-3.768,2.717c-0.859,0.859-1.41,1.678-1.654,2.455c-0.244,0.778-0.051,1.483,0.582,2.117  c0.467,0.467,0.998,0.701,1.596,0.703c0.598,0.004,1.301-0.15,2.111-0.461c0.811-0.312,1.738-0.754,2.779-1.33  c1.041-0.574,2.242-1.207,3.598-1.896c2.117-1.117,4.127-2.027,6.029-2.731c1.904-0.703,3.727-1.108,5.467-1.216  c1.74-0.106,3.441,0.175,5.104,0.846c1.66,0.672,3.324,1.841,4.99,3.508c2.133,2.133,3.537,4.313,4.211,6.537  s0.811,4.406,0.406,6.543c-0.402,2.138-1.215,4.197-2.432,6.181c-1.219,1.983-2.635,3.784-4.252,5.401  c-1.285,1.286-2.705,2.508-4.26,3.659c-1.553,1.154-3.18,2.215-4.883,3.185s-3.424,1.823-5.16,2.56  c-1.738,0.738-3.451,1.319-5.141,1.74l-4.391-12.705c1.889-0.421,3.742-0.976,5.563-1.663c1.557-0.557,3.203-1.303,4.939-2.239  s3.297-2.099,4.682-3.483c1.057-1.057,1.648-1.932,1.779-2.628c0.129-0.694-0.039-1.276-0.506-1.743  c-0.5-0.5-1.133-0.719-1.895-0.656c-0.764,0.063-1.639,0.324-2.633,0.783c-0.992,0.459-2.092,1.025-3.299,1.699  s-2.521,1.356-3.945,2.045c-2.084,1.019-3.994,1.78-5.734,2.285c-1.738,0.506-3.361,0.73-4.871,0.672  c-1.508-0.057-2.936-0.413-4.283-1.066c-1.346-0.653-2.668-1.63-3.969-2.93c-1.967-1.967-3.346-4.053-4.135-6.264  c-0.791-2.209-1.074-4.424-0.854-6.645s0.857-4.373,1.908-6.458c1.051-2.083,2.449-3.999,4.199-5.749  c1.287-1.287,2.666-2.416,4.137-3.387s2.967-1.834,4.488-2.59c1.521-0.754,3.002-1.402,4.443-1.942  c1.439-0.54,2.756-1.006,3.947-1.397L695.152,168.466z"/>
<g>
	
		<rect x="598.049" y="155.582" transform="matrix(0.7071 0.7071 -0.7071 0.7071 290.5895 -376.7306)" fill="#FFFFFF" width="4" height="13.65"/>
	<path fill="#FFFFFF" d="M633.98,190.701l16.424-16.424c0.605-2.129,0.846-4.256,0.725-6.381l-23.504,23.503   C629.728,191.527,631.847,191.293,633.98,190.701z"/>
	<path fill="#FFFFFF" d="M613.773,185.453l9.741-9.741c-1.078-0.751-2.106-1.604-3.082-2.575l-9.652,9.652   C611.747,183.752,612.749,184.63,613.773,185.453z"/>
	<path fill="#FFFFFF" d="M635.471,175.803c-0.792,0.793-1.621,1.367-2.481,1.746l-12.213,12.213c1.423,0.602,2.87,1.039,4.339,1.318   l25.705-25.705c-0.276-1.457-0.717-2.902-1.324-4.332l-12.304,12.304C636.813,174.205,636.249,175.026,635.471,175.803z"/>
	<path fill="#FFFFFF" d="M637.547,168.277c0.136,0.554,0.205,1.104,0.232,1.654l10.798-10.798c-0.045-0.085-0.085-0.169-0.132-0.253   c-0.604-1.1-1.302-2.168-2.053-3.22l-9.895,9.895C636.97,166.46,637.325,167.367,637.547,168.277z"/>
	
		<rect x="597.466" y="164.65" transform="matrix(-0.7071 0.7071 -0.7071 -0.7071 1149.4293 -142.8084)" fill="#FFFFFF" width="13.65" height="4"/>
	<path fill="#FFFFFF" d="M644.121,184.452c1.696-1.696,3.076-3.431,4.141-5.204l-9.348,9.348   C640.676,187.539,642.411,186.161,644.121,184.452z"/>
	<path fill="#FFFFFF" d="M635.426,163.8l9.746-9.745c-0.822-1.02-1.698-2.021-2.666-2.992l-9.652,9.652   C633.831,161.697,634.684,162.727,635.426,163.8z"/>
	
		<rect x="605.951" y="173.135" transform="matrix(-0.7071 0.7071 -0.7071 -0.7071 1169.9141 -134.3237)" fill="#FFFFFF" width="13.65" height="4"/>
	
		<rect x="601.708" y="168.893" transform="matrix(-0.7071 0.7071 -0.7071 -0.7071 1159.6713 -138.5664)" fill="#FFFFFF" width="13.65" height="4"/>
	<path fill="#FFFFFF" d="M618.349,188.577c0.17,0.096,0.341,0.182,0.512,0.272l10.744-10.744c-0.516-0.03-1.035-0.096-1.56-0.225   c-0.928-0.227-1.856-0.594-2.785-1.088l-9.876,9.877C616.351,187.357,617.334,188.008,618.349,188.577z"/>
	
		<rect x="619.542" y="142.574" transform="matrix(-0.7071 0.7071 -0.7071 -0.7071 1171.4967 -196.1192)" fill="#FFFFFF" width="13.651" height="4"/>
	
		<rect x="628.027" y="151.06" transform="matrix(-0.7071 0.7071 -0.7071 -0.7071 1191.9905 -187.6195)" fill="#FFFFFF" width="13.65" height="4"/>
	
		<rect x="623.785" y="146.816" transform="matrix(-0.7071 0.7071 -0.7071 -0.7071 1181.7561 -191.8491)" fill="#FFFFFF" width="13.65" height="4"/>
	
		<rect x="615.3" y="138.331" transform="matrix(-0.7071 0.7071 -0.7071 -0.7071 1161.2628 -200.3487)" fill="#FFFFFF" width="13.65" height="4"/>
	<path fill="#FFFFFF" d="M602.108,182.975l-19.969,19.969c1.016,0.756,2.113,1.535,3.32,2.337l19.521-19.521L602.108,182.975z"/>
	<path fill="#FFFFFF" d="M606.416,187.152l-19.239,19.239c1.102,0.696,2.278,1.405,3.532,2.125l18.579-18.579L606.416,187.152z"/>
	<path fill="#FFFFFF" d="M597.801,178.798l-20.321,20.321c0.891,0.814,1.906,1.684,3.059,2.598l20.134-20.135L597.801,178.798z"/>
	<path fill="#FFFFFF" d="M610.724,191.33l-18.204,18.203c1.171,0.642,2.413,1.292,3.711,1.945l17.364-17.363L610.724,191.33z"/>
	<path fill="#FFFFFF" d="M620.449,221.203l10.378-10.379l-2.872-2.784l-11.768,11.767   C617.678,220.321,619.097,220.784,620.449,221.203z"/>
	<path fill="#FFFFFF" d="M644.601,224.182l-3.722-3.609l-4.122,4.121C642.469,225.161,644.601,224.182,644.601,224.182z"/>
	<path fill="#FFFFFF" d="M627.093,223.044l8.042-8.042l-2.872-2.785l-9.639,9.639C624.215,222.315,625.703,222.709,627.093,223.044z   "/>
	<path fill="#FFFFFF" d="M634.208,224.414l5.235-5.234l-2.873-2.785l-7.171,7.172C631.178,223.942,632.783,224.222,634.208,224.414z   "/>
	<path fill="#FFFFFF" d="M568.504,188.296l19.245-19.245l-2.872-2.785l-18.449,18.449   C567.131,186.104,567.841,187.296,568.504,188.296z"/>
	<path fill="#FFFFFF" d="M589.185,170.443l-19.508,19.508c1.129,1.482,1.924,2.23,1.924,2.23s0.162,0.338,0.557,0.945l19.899-19.899   L589.185,170.443z"/>
	<path fill="#FFFFFF" d="M614.096,219.07l12.423-12.423l-2.872-2.784l-13.665,13.663   C611.404,218.079,612.779,218.596,614.096,219.07z"/>
	<path fill="#FFFFFF" d="M593.493,174.62l-20.145,20.146c0.657,0.825,1.541,1.831,2.685,2.973l20.333-20.333L593.493,174.62z"/>
	<path fill="#FFFFFF" d="M583.583,165.01l70.124-70.768c0,0,3.359-6.154,3.021-7.376c1.795-11.181-10.311-30.448-5.778-18.192   c2.244,6.068,0.886,9.628-1.854,11.691c-1.465-11.803-11.066-27.815-8.715-18.731c1.006,3.887,0.795,7.384-0.029,10.411   c-5.991-9.213-18.664-17.602-12.095-10.76c8.136,8.475,2.291,15.672-1.09,18.711c-1.146,0.745-2.468,1.678-3.998,2.86   c-11.186,8.644-23.233,17.325-23.233,17.325s-27.667,19.667-35.667,48.667c-4.346,15.755-1.804,27.172,1.423,34.323l18.029-18.029   L583.583,165.01z"/>
	<path fill="#FFFFFF" d="M619.339,199.686l-15.386,15.386c0.86,0.37,1.742,0.74,2.647,1.11c0.462,0.188,0.903,0.362,1.355,0.544   l14.256-14.255L619.339,199.686z"/>
	<path fill="#FFFFFF" d="M615.032,195.508l-16.904,16.903c1.232,0.596,2.518,1.194,3.862,1.795l15.914-15.913L615.032,195.508z"/>
</g>
<path fill="#FFFFFF" d="M684.705,143.268l10.891-10.89l-20.475-5.624c0.451-2.717,0.23-5.413-0.662-8.087  c-0.891-2.673-2.369-5.043-4.438-7.11c-1.5-1.5-3.287-2.694-5.365-3.583c-2.076-0.889-4.209-1.389-6.398-1.5  c-2.189-0.11-4.369,0.204-6.537,0.938c-2.17,0.736-4.111,1.962-5.826,3.677l-16.136,16.136l35.494,35.495l9.652-9.652  l-10.898-10.898l3.613-3.613L684.705,143.268z"/>
</svg>
